<svg width="1260" height="229" viewBox="0 0 1260 229" fill="none" xmlns="http://www.w3.org/2000/svg">
<path d="M387.399 226.971H368.416V125.966H419.57C440.728 125.966 458.552 131.183 458.552 155.963C458.552 181.758 440.003 186.685 419.57 186.685H387.399V226.971ZM387.399 140.023V172.628H418.846C428.555 172.628 439.279 170.889 439.279 156.253C439.279 141.617 428.41 140.023 418.846 140.023H387.399Z" fill="white"/>
<path d="M550.847 226.971H468.825V125.966H550.847V140.023H487.954V169.006H545.195V183.207H487.954V212.915H550.847V226.971Z" fill="white"/>
<path d="M628.789 185.671L655.888 226.971H634.006L609.37 186.685H582.416V226.971H563.433V125.966H614.587C635.745 125.966 653.569 131.183 653.569 155.963C653.569 175.527 642.846 183.062 628.789 185.671ZM613.863 140.023H582.416V172.628H613.863C623.572 172.628 634.296 170.889 634.296 156.253C634.296 141.617 623.427 140.023 613.863 140.023Z" fill="white"/>
<path d="M727.55 197.988L763.489 125.966H789.139V226.971H770.01V149.877L735.955 218.276H719.29L685.38 150.457V226.971H666.251V125.966H691.756L727.55 197.988Z" fill="white"/>
<path d="M823.716 226.971H804.443V125.966H823.716V226.971Z" fill="white"/>
<path d="M887.007 229C853.966 229 839.62 216.682 833.533 198.858L852.227 195.09C857.154 207.987 870.052 214.364 887.151 214.364C903.527 214.364 911.352 209.002 911.352 199.293C911.352 189.583 902.078 186.83 882.949 183.642C861.647 180.164 841.214 175.961 841.214 153.355C841.214 134.951 857.299 123.937 881.645 123.937C900.629 123.937 913.961 129.154 925.264 140.747L912.801 151.036C905.121 143.066 893.673 138.574 880.341 138.574C867.878 138.574 860.197 143.356 860.197 151.616C860.197 160.456 869.182 163.064 887.876 166.542C905.99 169.875 930.481 174.367 930.481 197.409C930.481 215.813 917.149 229 887.007 229Z" fill="white"/>
<path d="M989.256 229C956.216 229 941.869 216.682 935.783 198.858L954.477 195.09C959.404 207.987 972.301 214.364 989.401 214.364C1005.78 214.364 1013.6 209.002 1013.6 199.293C1013.6 189.583 1004.33 186.83 985.198 183.642C963.896 180.164 943.463 175.961 943.463 153.355C943.463 134.951 959.549 123.937 983.894 123.937C1002.88 123.937 1016.21 129.154 1027.51 140.747L1015.05 151.036C1007.37 143.066 995.922 138.574 982.59 138.574C970.127 138.574 962.447 143.356 962.447 151.616C962.447 160.456 971.431 163.064 990.125 166.542C1008.24 169.875 1032.73 174.367 1032.73 197.409C1032.73 215.813 1019.4 229 989.256 229Z" fill="white"/>
<path d="M1077.49 105.823C1074.44 105.823 1072.41 109.301 1072.41 114.808H1063.14C1063.14 103.215 1068.94 95.9688 1078.21 95.9688C1088.35 95.9688 1090.96 106.548 1096.61 106.548C1099.37 106.548 1101.4 102.925 1101.4 96.4036H1111.11C1111.11 109.156 1105.31 116.402 1096.47 116.402C1085.02 116.402 1083.28 105.823 1077.49 105.823Z" fill="white"/>
<path d="M1201.36 229C1165.42 229 1143.54 208.277 1143.54 176.541C1143.54 144.805 1165.42 123.937 1201.36 123.937C1237.59 123.937 1259.33 144.66 1259.33 176.541C1259.33 208.422 1237.44 229 1201.36 229ZM1201.36 213.204C1226.14 213.204 1240.05 199.003 1240.05 176.541C1240.05 153.934 1226.14 139.733 1201.36 139.733C1176.58 139.733 1162.52 153.934 1162.52 176.541C1162.52 199.003 1176.58 213.204 1201.36 213.204Z" fill="white"/>
<path fill-rule="evenodd" clip-rule="evenodd" d="M46.2658 125.929C45.4002 127.595 22.8655 176.203 20.0795 182.413C19.1801 184.418 14.2942 195.035 9.22209 206.007C4.15 216.979 0 226.075 0 226.22C0 226.364 2.83984 226.43 6.31123 226.366L12.6225 226.25L13.9061 224.227C18.9174 216.33 26.3095 208.09 32.4316 203.574C43.6168 195.325 57.8027 191.683 73.1867 193.11L75.9872 193.37L83.1785 208.969C87.1338 217.549 90.6433 224.995 90.9779 225.514C91.5787 226.449 91.698 226.46 101.132 226.46C106.382 226.46 110.783 226.357 110.912 226.231C111.039 226.105 108.105 219.629 104.389 211.839C97.6682 197.749 91.7789 185.143 73.2868 145.257L63.5945 124.353H55.3394H47.0843L46.2658 125.929ZM121.474 175.408V226.464L164.797 226.357L182.43 226.25L182.479 221.943L182.529 217.636H168.417H139.017V170.994V124.353H130.246H121.474V175.408ZM155.859 125.929C155.713 126.795 155.592 128.781 155.589 130.341L155.584 133.177H176.763H197.941L198.05 179.713L198.158 226.25L207.037 226.363L215.915 226.477V179.827V133.177H236.667H257.42V128.765V124.353H206.772H156.124L155.859 125.929ZM276.275 127.39C275.49 129.071 271.717 137.158 267.89 145.362C264.063 153.567 259.917 162.454 258.678 165.112C257.438 167.769 254.479 174.198 252.102 179.398C249.726 184.598 243.946 197.172 239.258 207.341C234.571 217.51 230.824 225.971 230.931 226.145C231.038 226.318 233.89 226.46 237.268 226.46H243.41L244.791 224.256C251.771 213.116 262.765 203.102 273.478 198.126C282.6 193.889 294.636 191.946 304.523 193.112L306.73 193.372L314.106 209.391C318.162 218.201 321.67 225.646 321.9 225.935C322.212 226.327 324.737 226.46 331.868 226.46C337.121 226.46 341.506 226.318 341.615 226.145C341.723 225.971 339.505 221.008 336.686 215.115C333.867 209.221 328.802 198.443 325.432 191.164C316.088 170.982 308.868 155.456 301.297 139.27L294.418 124.563L286.06 124.449L277.701 124.335L276.275 127.39ZM55.3612 148.542C57.365 152.918 62.2561 163.494 66.2302 172.045L73.4562 187.592L65.2893 187.851C49.6323 188.349 37.7651 191.138 26.6946 196.921C24.7207 197.952 23.1055 198.707 23.1055 198.598C23.1055 198.381 31.3199 180.276 39.157 163.221C41.9181 157.212 45.4246 149.554 46.9491 146.203C50.7679 137.809 50.48 138.265 51.1594 139.539C51.4667 140.114 53.3575 144.166 55.3612 148.542ZM286.61 149.564C289.195 155.227 293.375 164.303 295.899 169.734C298.424 175.165 301.31 181.423 302.313 183.642L304.137 187.676L296.381 187.934C282.002 188.413 270.497 191.198 258.473 197.111C255.775 198.438 253.508 199.467 253.437 199.397C253.365 199.327 254.353 197.02 255.633 194.271C256.911 191.522 260.603 183.506 263.835 176.457C267.068 169.408 272.109 158.441 275.038 152.086C277.966 145.73 280.544 140.074 280.766 139.516C281.002 138.923 281.322 138.661 281.54 138.886C281.743 139.097 284.025 143.902 286.61 149.564Z" fill="#EAD5B6"/>
<path d="M438.593 6.51101C439.071 5.4302 439.585 3.52315 439.737 2.273L440.013 0L440.53 2.83368C441.462 7.93921 442.966 9.4981 447.822 10.391C450.306 10.8475 450.916 11.1756 449.281 11.1756C447.873 11.1756 444.475 12.2003 443.322 12.9724C442.049 13.8251 441.082 16.0068 440.566 19.1932L440.116 21.9723L439.613 19.1754C439.029 15.9261 438.026 13.7092 436.756 12.858C435.673 12.1329 432.335 11.1862 430.838 11.1801C429.165 11.1729 429.914 10.81 432.471 10.3891C436.045 9.80079 437.566 8.83704 438.593 6.51101Z" fill="white"/>
<path d="M359.81 14.4563C367.152 6.72504 375.805 2.57228 387.449 1.19219C391.453 0.71789 397.56 1.31114 402.688 2.67343C408.563 4.23346 414.677 7.54219 418.717 11.3457C421.878 14.3218 426.186 22.0295 426.245 24.8136C426.27 25.961 425.019 31.403 423.721 35.7997C422.036 41.5068 417.674 51.977 418.513 48.3012C420.292 40.5082 419.534 31.8011 416.511 25.3231C411.864 15.3602 401.073 9.19769 389.302 9.78412C375.162 10.4887 363.707 19.7739 359.79 33.7059C358.739 37.4427 358.442 45.5353 359.204 49.64C361.528 62.154 369.958 71.7112 381.969 75.4491C384.842 76.3432 385.859 76.4648 390.599 76.4788C397.028 76.4981 399.851 75.8303 405.608 72.9269C415.676 67.849 423.1 58.4702 428.63 43.8435C430.348 39.3009 432.689 31.4401 433.092 28.8663C433.62 25.4883 434.063 29.2266 434.069 37.1256C434.076 45.7782 433.617 49.5495 431.859 55.2535C427.86 68.2252 417.928 78.5972 405.408 82.8747C391.652 87.5741 376.328 85.2556 365.152 76.7845C352.767 67.3971 346.632 53.4181 348.333 38.4599C349.368 29.358 353.129 21.4923 359.81 14.4563Z" fill="white"/>
<path d="M101.695 85.4797H34.1912V0.853997H101.695V7.90614H46.9687V38.0068H96.2706V47.7199H46.9687V78.4276H101.695V85.4797Z" fill="white"/>
<path d="M120.961 85.4797H108.184V0.853997H178.339V7.90614H120.961V39.828H171.227V49.4197H120.961V85.4797Z" fill="white"/>
<path d="M250.033 85.4797H182.529V0.853997H250.033V7.90614H195.307V38.0068H244.609V47.7199H195.307V78.4276H250.033V85.4797Z" fill="white"/>
<path d="M269.42 85.4797H256.522V0.853997H269.42V85.4797Z" fill="white"/>
<path fill-rule="evenodd" clip-rule="evenodd" d="M273.996 2.15398C273.877 2.86915 273.778 4.50714 273.776 5.79395L273.772 8.13392H308.279L308.457 84.9198L322.923 85.1074V8.13392H356.736V0.853997H274.212L273.996 2.15398Z" fill="white"/>
<path fill-rule="evenodd" clip-rule="evenodd" d="M1083.42 125.911C1082.55 127.578 1060.02 176.185 1057.23 182.395C1056.33 184.4 1051.45 195.018 1046.38 205.99C1041.3 216.962 1037.15 226.057 1037.15 226.202C1037.15 226.346 1039.99 226.412 1043.47 226.349L1049.78 226.232L1051.06 224.209C1056.07 216.313 1063.46 208.072 1069.59 203.557C1080.77 195.308 1094.96 191.665 1110.34 193.093L1113.14 193.352L1120.33 208.952C1124.29 217.532 1127.8 224.977 1128.13 225.497C1128.73 226.431 1128.85 226.442 1138.29 226.442C1143.54 226.442 1147.94 226.339 1148.07 226.213C1148.19 226.087 1145.26 219.611 1141.54 211.822C1134.82 197.732 1128.93 185.125 1110.44 145.24L1100.75 124.335H1092.49H1084.24L1083.42 125.911ZM1092.52 148.524C1094.52 152.9 1099.41 163.476 1103.38 172.027L1110.61 187.574L1102.44 187.834C1086.79 188.331 1074.92 191.12 1063.85 196.903C1061.88 197.935 1060.26 198.689 1060.26 198.58C1060.26 198.363 1068.47 180.259 1076.31 163.203C1079.07 157.194 1082.58 149.536 1084.1 146.185C1087.92 137.791 1087.63 138.247 1088.31 139.521C1088.62 140.097 1090.51 144.148 1092.52 148.524Z" fill="white"/>
</svg>
