<svg width="710" height="204" viewBox="0 0 710 204" fill="none" xmlns="http://www.w3.org/2000/svg">
<path d="M0.499761 169.876V167.127H21.8645V169.876H12.6606V196.947H9.66204V169.876H0.499761ZM33.9883 196.947H30.9897V167.127H42.1094C48.1482 167.127 51.8131 170.459 51.8131 175.748C51.8131 180.038 49.5642 183.036 45.7327 184.078L52.1046 196.947H48.7729L42.6925 184.577H33.9883V196.947ZM33.9883 169.834V181.87H42.1927C46.3157 181.87 48.7312 179.621 48.7312 175.832C48.7312 171.958 46.1908 169.834 42.1094 169.834H33.9883ZM80.4931 196.947H62.6266V167.127H80.4514V169.876H65.6252V180.621H79.0771V183.328H65.6252V194.198H80.4931V196.947ZM94.5778 167.127V196.947H91.5792V167.127H94.5778ZM109.824 196.947H106.826V167.127H109.866L126.275 191.949V167.127H129.232V196.947H126.275L109.824 172.125V196.947ZM141.513 196.947H138.473L149.426 167.127H153.132L164.21 196.947H161.087L158.172 189.034H144.428L141.513 196.947ZM150.884 171.334L145.345 186.41H157.214L151.633 171.334C151.508 170.917 151.3 170.418 151.258 170.126C151.217 170.376 151.05 170.917 150.884 171.334ZM176.31 196.947H173.353V167.127H176.31L187.18 193.407L198.05 167.127H201.048V196.947H198.091V182.787C198.091 177.581 198.175 175.29 198.341 173.25L188.638 196.947H185.764L176.06 173.374C176.227 174.499 176.31 177.789 176.31 182.328V196.947ZM231.153 196.947H213.287V167.127H231.112V169.876H216.285V180.621H229.737V183.328H216.285V194.198H231.153V196.947ZM245.238 196.947H242.24V167.127H245.28L261.689 191.949V167.127H264.645V196.947H261.689L245.238 172.125V196.947ZM273.803 169.876V167.127H295.168V169.876H285.964V196.947H282.965V169.876H273.803ZM329.766 182.037C329.766 191.074 323.894 197.446 315.564 197.446C307.193 197.446 301.363 191.074 301.363 182.037C301.363 173 307.235 166.586 315.564 166.586C323.935 166.586 329.766 172.958 329.766 182.037ZM326.684 182.037C326.684 174.582 322.144 169.501 315.564 169.501C308.984 169.501 304.486 174.582 304.486 182.037C304.486 189.492 308.984 194.573 315.564 194.573C322.144 194.573 326.684 189.45 326.684 182.037ZM359.747 167.127V196.947H356.749V167.127H359.747ZM374.994 196.947H371.995V167.127H375.035L391.444 191.949V167.127H394.401V196.947H391.444L374.994 172.125V196.947ZM403.559 169.876V167.127H424.924V169.876H415.72V196.947H412.721V169.876H403.559ZM437.047 196.947H434.049V167.127H445.168C451.207 167.127 454.872 170.459 454.872 175.748C454.872 180.038 452.623 183.036 448.792 184.078L455.164 196.947H451.832L445.752 184.577H437.047V196.947ZM437.047 169.834V181.87H445.252C449.375 181.87 451.79 179.621 451.79 175.832C451.79 171.958 449.25 169.834 445.168 169.834H437.047ZM492.094 182.037C492.094 191.074 486.221 197.446 477.892 197.446C469.521 197.446 463.691 191.074 463.691 182.037C463.691 173 469.563 166.586 477.892 166.586C486.263 166.586 492.094 172.958 492.094 182.037ZM489.012 182.037C489.012 174.582 484.472 169.501 477.892 169.501C471.312 169.501 466.814 174.582 466.814 182.037C466.814 189.492 471.312 194.573 477.892 194.573C484.472 194.573 489.012 189.45 489.012 182.037ZM511.607 196.947H502.528V167.127H511.524C520.52 167.127 526.517 173.125 526.517 182.037C526.517 190.949 520.561 196.947 511.607 196.947ZM511.399 169.876H505.527V194.198H511.482C518.771 194.198 523.435 189.45 523.435 182.037C523.435 174.582 518.771 169.876 511.399 169.876ZM536.723 186.576V167.127H539.721V186.452C539.721 191.699 542.595 194.531 547.801 194.531C552.882 194.531 555.755 191.616 555.755 186.452V167.127H558.754V186.576C558.754 193.323 554.589 197.446 547.801 197.446C540.887 197.446 536.723 193.365 536.723 186.576ZM567.681 169.876V167.127H589.046V169.876H579.842V196.947H576.843V169.876H567.681ZM613.898 159.923L610.733 164.879H608.359L610.858 159.923H613.898ZM623.644 182.037C623.644 191.074 617.771 197.446 609.442 197.446C601.071 197.446 595.241 191.074 595.241 182.037C595.241 173 601.113 166.586 609.442 166.586C617.813 166.586 623.644 172.958 623.644 182.037ZM620.562 182.037C620.562 174.582 616.022 169.501 609.442 169.501C602.862 169.501 598.364 174.582 598.364 182.037C598.364 189.492 602.862 194.573 609.442 194.573C616.022 194.573 620.562 189.45 620.562 182.037ZM637.077 196.947H634.078V167.127H645.198C651.237 167.127 654.902 170.459 654.902 175.748C654.902 180.038 652.653 183.036 648.821 184.078L655.193 196.947H651.862L645.781 184.577H637.077V196.947ZM637.077 169.834V181.87H645.281C649.404 181.87 651.82 179.621 651.82 175.832C651.82 171.958 649.279 169.834 645.198 169.834H637.077ZM668.714 167.127V196.947H665.715V167.127H668.714ZM707.533 182.037C707.533 191.074 701.66 197.446 693.331 197.446C684.96 197.446 679.129 191.074 679.129 182.037C679.129 173 685.002 166.586 693.331 166.586C701.702 166.586 707.533 172.958 707.533 182.037ZM704.451 182.037C704.451 174.582 699.911 169.501 693.331 169.501C686.751 169.501 682.253 174.582 682.253 182.037C682.253 189.492 686.751 194.573 693.331 194.573C699.911 194.573 704.451 189.45 704.451 182.037Z" fill="white" fill-opacity="0.48"/>
<path d="M216.656 126.936H206.04V70.4476H234.648C246.481 70.4476 256.449 73.3652 256.449 87.2238C256.449 101.65 246.076 104.405 234.648 104.405H216.656V126.936ZM216.656 78.3089V96.5439H234.243C239.673 96.5439 245.67 95.5714 245.67 87.3859C245.67 79.2004 239.592 78.3089 234.243 78.3089H216.656Z" fill="white"/>
<path d="M308.066 126.936H262.195V70.4476H308.066V78.3089H272.892V94.5178H304.905V102.46H272.892V119.074H308.066V126.936Z" fill="white"/>
<path d="M351.656 103.838L366.811 126.936H354.573L340.796 104.405H325.721V126.936H315.105V70.4476H343.713C355.546 70.4476 365.514 73.3652 365.514 87.2238C365.514 98.1648 359.517 102.379 351.656 103.838ZM343.308 78.3089H325.721V96.5439H343.308C348.738 96.5439 354.735 95.5714 354.735 87.3859C354.735 79.2004 348.657 78.3089 343.308 78.3089Z" fill="white"/>
<path d="M406.889 110.727L426.988 70.4476H441.333V126.936H430.635V83.8199L411.589 122.073H402.269L383.305 84.1441V126.936H372.607V70.4476H386.871L406.889 110.727Z" fill="white"/>
<path d="M460.67 126.936H449.892V70.4476H460.67V126.936Z" fill="white"/>
<path d="M496.066 128.07C477.588 128.07 469.565 121.181 466.161 111.213L476.615 109.106C479.371 116.319 486.584 119.885 496.147 119.885C505.305 119.885 509.682 116.886 509.682 111.456C509.682 106.026 504.495 104.486 493.797 102.703C481.883 100.758 470.456 98.4079 470.456 85.765C470.456 75.4723 479.452 69.313 493.067 69.313C503.684 69.313 511.14 72.2306 517.462 78.7141L510.492 84.4683C506.197 80.0108 499.794 77.4985 492.338 77.4985C485.368 77.4985 481.073 80.1729 481.073 84.7925C481.073 89.7362 486.098 91.195 496.552 93.14C506.683 95.0041 520.379 97.5164 520.379 110.403C520.379 120.695 512.923 128.07 496.066 128.07Z" fill="white"/>
<path d="M553.25 128.07C534.772 128.07 526.748 121.181 523.344 111.213L533.799 109.106C536.555 116.319 543.768 119.885 553.331 119.885C562.489 119.885 566.865 116.886 566.865 111.456C566.865 106.026 561.679 104.486 550.981 102.703C539.067 100.758 527.64 98.4079 527.64 85.765C527.64 75.4723 536.636 69.313 550.251 69.313C560.868 69.313 568.324 72.2306 574.646 78.7141L567.676 84.4683C563.38 80.0108 556.978 77.4985 549.522 77.4985C542.552 77.4985 538.257 80.1729 538.257 84.7925C538.257 89.7362 543.281 91.195 553.736 93.14C563.867 95.0041 577.563 97.5164 577.563 110.403C577.563 120.695 570.107 128.07 553.25 128.07Z" fill="white"/>
<path d="M602.593 59.1824C600.891 59.1824 599.757 61.1275 599.757 64.2072H594.57C594.57 57.7236 597.812 53.6714 602.999 53.6714C608.672 53.6714 610.13 59.5876 613.291 59.5876C614.831 59.5876 615.966 57.5615 615.966 53.9145H621.396C621.396 61.0464 618.154 65.0987 613.21 65.0987C606.808 65.0987 605.835 59.1824 602.593 59.1824Z" fill="white"/>
<path d="M671.872 128.07C651.773 128.07 639.535 116.481 639.535 98.7321C639.535 80.9834 651.773 69.313 671.872 69.313C692.133 69.313 704.289 80.9023 704.289 98.7321C704.289 116.562 692.052 128.07 671.872 128.07ZM671.872 119.236C685.73 119.236 693.511 111.294 693.511 98.7321C693.511 86.0892 685.73 78.1468 671.872 78.1468C658.013 78.1468 650.152 86.0892 650.152 98.7321C650.152 111.294 658.013 119.236 671.872 119.236Z" fill="white"/>
<path fill-rule="evenodd" clip-rule="evenodd" d="M25.8745 70.4266C25.3904 71.3588 12.7877 98.543 11.2297 102.016C10.7267 103.137 7.99414 109.075 5.15753 115.211C2.32092 121.348 0 126.434 0 126.515C0 126.596 1.5882 126.633 3.52961 126.597L7.05921 126.532L7.7771 125.401C10.5797 120.985 14.7138 116.376 18.1376 113.851C24.3931 109.237 32.3267 107.2 40.9303 107.999L42.4965 108.144L46.5183 116.868C48.7303 121.666 50.6931 125.83 50.8802 126.121C51.2162 126.644 51.2829 126.65 56.5589 126.65C59.4953 126.65 61.9565 126.592 62.0282 126.522C62.0998 126.451 60.4585 122.829 58.3804 118.473C54.6218 110.593 51.3281 103.543 40.9863 81.2365L35.5658 69.5454H30.949H26.3323L25.8745 70.4266ZM67.9354 98.0987V126.652L92.1641 126.592L102.025 126.532L102.053 124.123L102.081 121.715H94.1884H77.7465V95.63V69.5454H72.841H67.9354V98.0987ZM87.1655 70.4266C87.0839 70.9114 87.0159 72.0218 87.0145 72.8941L87.0118 74.4803H98.856H110.7L110.761 100.506L110.822 126.532L115.787 126.596L120.752 126.659V100.57V74.4803H132.358H143.964V72.0128V69.5454H115.639H87.3138L87.1655 70.4266ZM154.509 71.2442C154.07 72.1839 151.96 76.7069 149.82 81.2952C147.68 85.8835 145.361 90.8537 144.668 92.3401C143.974 93.8264 142.32 97.4219 140.99 100.33C139.661 103.238 136.429 110.27 133.807 115.957C131.186 121.644 129.09 126.376 129.15 126.473C129.21 126.57 130.805 126.65 132.694 126.65H136.129L136.901 125.417C140.805 119.187 146.954 113.586 152.945 110.804C158.047 108.434 164.778 107.347 170.307 108L171.541 108.145L175.666 117.104C177.935 122.031 179.897 126.194 180.025 126.356C180.2 126.575 181.612 126.65 185.6 126.65C188.538 126.65 190.99 126.57 191.051 126.473C191.112 126.376 189.871 123.601 188.294 120.305C186.718 117.009 183.885 110.981 182 106.91C176.775 95.623 172.737 86.9403 168.503 77.8878L164.656 69.6629L159.981 69.5992L155.307 69.5355L154.509 71.2442ZM30.9612 83.0732C32.0819 85.5205 34.8172 91.4353 37.0398 96.2175L41.081 104.912L36.5136 105.057C27.7573 105.336 21.1204 106.895 14.9292 110.13C13.8253 110.706 12.922 111.129 12.922 111.068C12.922 110.946 17.5159 100.821 21.8989 91.2826C23.4431 87.9221 25.4041 83.6393 26.2567 81.7652C28.3924 77.0707 28.2314 77.3256 28.6114 78.0382C28.7832 78.3601 29.8406 80.6259 30.9612 83.0732ZM160.289 83.6452C161.735 86.8118 164.073 91.8877 165.484 94.925C166.896 97.9624 168.51 101.463 169.071 102.703L170.091 104.959L165.754 105.104C157.712 105.371 151.278 106.929 144.553 110.236C143.044 110.978 141.777 111.554 141.737 111.514C141.697 111.475 142.249 110.185 142.965 108.648C143.68 107.11 145.744 102.627 147.552 98.685C149.36 94.7429 152.179 88.6095 153.817 85.0552C155.455 81.5008 156.896 78.3375 157.021 78.0257C157.153 77.6936 157.332 77.5475 157.454 77.6732C157.567 77.7912 158.844 80.4786 160.289 83.6452Z" fill="#EAD5B6"/>
<path d="M245.287 3.64134C245.554 3.03688 245.842 1.97035 245.926 1.27119L246.081 0L246.37 1.58476C246.891 4.44007 247.732 5.31189 250.448 5.81126C251.837 6.06656 252.178 6.25004 251.264 6.25004C250.477 6.25004 248.576 6.82313 247.932 7.25492C247.219 7.73183 246.679 8.95196 246.39 10.734L246.139 12.2882L245.857 10.724C245.531 8.90683 244.97 7.667 244.259 7.19093C243.654 6.78542 241.787 6.25597 240.95 6.25258C240.014 6.24855 240.433 6.04559 241.863 5.8102C243.862 5.48118 244.713 4.94219 245.287 3.64134Z" fill="white"/>
<path d="M201.227 8.08479C205.333 3.76104 210.172 1.43857 216.684 0.666742C218.924 0.401486 222.339 0.733268 225.207 1.49514C228.492 2.3676 231.912 4.21803 234.171 6.34516C235.939 8.00958 238.348 12.3202 238.381 13.8772C238.395 14.5189 237.696 17.5624 236.97 20.0213C236.027 23.2131 233.588 29.0686 234.057 27.0129C235.052 22.6546 234.628 17.7851 232.938 14.1622C230.339 8.5903 224.303 5.14388 217.72 5.47185C209.813 5.86592 203.406 11.0587 201.215 18.8503C200.628 20.9402 200.461 25.466 200.888 27.7616C202.188 34.7602 206.902 40.1051 213.619 42.1956C215.226 42.6956 215.795 42.7636 218.446 42.7714C222.041 42.7822 223.62 42.4087 226.839 40.785C232.47 37.9451 236.622 32.7 239.715 24.5198C240.676 21.9794 241.985 17.5832 242.21 16.1437C242.506 14.2545 242.753 16.3452 242.757 20.7628C242.761 25.6018 242.504 27.711 241.52 30.901C239.284 38.1555 233.73 43.9562 226.728 46.3484C219.035 48.9766 210.465 47.6799 204.214 42.9424C197.288 37.6924 193.857 29.8745 194.808 21.509C195.387 16.4187 197.491 12.0198 201.227 8.08479Z" fill="white"/>
<path d="M56.8737 47.8053H19.1216V0.477605H56.8737V4.42158H26.2675V21.2556H53.8401V26.6878H26.2675V43.8613H56.8737V47.8053Z" fill="white"/>
<path d="M67.6484 47.8053H60.5025V0.477605H99.7378V4.42158H67.6484V22.2741H95.7603V27.6384H67.6484V47.8053Z" fill="white"/>
<path d="M139.833 47.8053H102.081V0.477605H139.833V4.42158H109.227V21.2556H136.799V26.6878H109.227V43.8613H139.833V47.8053Z" fill="white"/>
<path d="M150.675 47.8053H143.462V0.477605H150.675V47.8053Z" fill="white"/>
<path fill-rule="evenodd" clip-rule="evenodd" d="M153.234 1.20463C153.168 1.6046 153.112 2.52065 153.111 3.24032L153.109 4.54896H172.408L172.507 47.4921L180.597 47.597V4.54896H199.508V0.477605H153.355L153.234 1.20463Z" fill="white"/>
<path fill-rule="evenodd" clip-rule="evenodd" d="M605.912 70.4167C605.428 71.349 592.825 98.5332 591.267 102.006C590.764 103.127 588.032 109.065 585.195 115.202C582.359 121.338 580.038 126.424 580.038 126.505C580.038 126.586 581.626 126.623 583.567 126.587L587.097 126.522L587.815 125.391C590.617 120.975 594.751 116.366 598.175 113.841C604.431 109.227 612.364 107.19 620.968 107.989L622.534 108.134L626.556 116.858C628.768 121.656 630.731 125.82 630.918 126.111C631.254 126.634 631.321 126.64 636.597 126.64C639.533 126.64 641.994 126.582 642.066 126.512C642.137 126.441 640.496 122.819 638.418 118.463C634.659 110.583 631.366 103.533 621.024 81.2266L615.603 69.5355H610.987H606.37L605.912 70.4167ZM610.999 83.0633C612.119 85.5106 614.855 91.4255 617.077 96.2076L621.119 104.903L616.551 105.048C607.795 105.326 601.158 106.885 594.967 110.12C593.863 110.697 592.96 111.119 592.96 111.058C592.96 110.936 597.554 100.811 601.936 91.2727C603.481 87.9123 605.442 83.6294 606.294 81.7553C608.43 77.0608 608.269 77.3158 608.649 78.0283C608.821 78.3502 609.878 80.6161 610.999 83.0633Z" fill="white"/>
</svg>
